<!-- lucide octagon-x · Generated by scripts/icons/lucide-mobile.mjs from lucide-static 1.48.0 (ISC); do not edit by hand. -->
<svg xmlns="http://www.w3.org/2000/svg" width="24" height="24" viewBox="0 0 24 24"><path d="m15 9-6 6" fill="none" stroke="#000000" stroke-width="2" stroke-linecap="round" stroke-linejoin="round"/><path d="M2.586 16.726A2 2 0 0 1 2 15.312V8.688a2 2 0 0 1 .586-1.414l4.688-4.688A2 2 0 0 1 8.688 2h6.624a2 2 0 0 1 1.414.586l4.688 4.688A2 2 0 0 1 22 8.688v6.624a2 2 0 0 1-.586 1.414l-4.688 4.688a2 2 0 0 1-1.414.586H8.688a2 2 0 0 1-1.414-.586z" fill="none" stroke="#000000" stroke-width="2" stroke-linecap="round" stroke-linejoin="round"/><path d="m9 9 6 6" fill="none" stroke="#000000" stroke-width="2" stroke-linecap="round" stroke-linejoin="round"/></svg>
