<!-- lucide workflow · Generated by scripts/icons/lucide-mobile.mjs from lucide-static 1.48.0 (ISC); do not edit by hand. -->
<svg xmlns="http://www.w3.org/2000/svg" width="24" height="24" viewBox="0 0 24 24"><path d="M5 3H9A2 2 0 0 1 11 5V9A2 2 0 0 1 9 11H5A2 2 0 0 1 3 9V5A2 2 0 0 1 5 3Z" fill="none" stroke="#000000" stroke-width="2" stroke-linecap="round" stroke-linejoin="round"/><path d="M7 11v4a2 2 0 0 0 2 2h4" fill="none" stroke="#000000" stroke-width="2" stroke-linecap="round" stroke-linejoin="round"/><path d="M15 13H19A2 2 0 0 1 21 15V19A2 2 0 0 1 19 21H15A2 2 0 0 1 13 19V15A2 2 0 0 1 15 13Z" fill="none" stroke="#000000" stroke-width="2" stroke-linecap="round" stroke-linejoin="round"/></svg>
